<svg width="800" height="400" viewBox="0 0 800 400" fill="none" xmlns="http://www.w3.org/2000/svg">
<path d="M393 100H123C114.716 100 108 106.716 108 115V285C108 293.284 114.716 300 123 300H393C401.284 300 408 293.284 408 285V115C408 106.716 401.284 100 393 100Z" fill="#002338"/>
<path d="M252.372 217.385C240.2 202.983 240.798 188.949 255.2 176.778C269.602 164.606 282.889 165.721 295.06 180.123C307.232 194.525 305.613 207.918 291.211 220.09" stroke="#FFD43B" stroke-width="4"/>
<path d="M291.501 223.117C279.127 208.89 265.826 207.964 251.598 220.338C237.371 232.713 224.069 231.787 211.695 217.559" stroke="#F0F0F0" stroke-width="4"/>
<path d="M470.678 208.4C470.678 209.24 470.818 209.853 471.098 210.24C471.378 210.627 471.811 210.913 472.398 211.1L471.578 213.46C470.671 213.34 469.878 213.053 469.198 212.6C468.518 212.133 468.025 211.433 467.718 210.5C466.958 211.473 466.011 212.213 464.878 212.72C463.745 213.213 462.491 213.46 461.118 213.46C459.011 213.46 457.351 212.867 456.138 211.68C454.925 210.493 454.318 208.92 454.318 206.96C454.318 204.787 455.165 203.12 456.858 201.96C458.551 200.8 460.998 200.22 464.198 200.22H467.298V198.46C467.298 196.94 466.851 195.867 465.958 195.24C465.078 194.6 463.851 194.28 462.278 194.28C461.585 194.28 460.771 194.367 459.838 194.54C458.905 194.7 457.891 194.973 456.798 195.36L455.918 192.82C457.211 192.34 458.425 192 459.558 191.8C460.691 191.6 461.771 191.5 462.798 191.5C465.425 191.5 467.391 192.113 468.698 193.34C470.018 194.553 470.678 196.207 470.678 198.3V208.4ZM461.978 210.9C463.018 210.9 464.011 210.64 464.958 210.12C465.905 209.587 466.685 208.853 467.298 207.92V202.5H464.258C461.938 202.5 460.298 202.9 459.338 203.7C458.391 204.5 457.918 205.573 457.918 206.92C457.918 208.227 458.251 209.22 458.918 209.9C459.598 210.567 460.618 210.9 461.978 210.9ZM489.003 191.5C490.869 191.5 492.356 191.953 493.463 192.86C494.583 193.767 495.389 195.047 495.883 196.7C496.376 198.34 496.623 200.26 496.623 202.46C496.623 204.58 496.323 206.473 495.723 208.14C495.136 209.793 494.243 211.093 493.043 212.04C491.843 212.987 490.329 213.46 488.503 213.46C486.196 213.46 484.343 212.647 482.943 211.02V221.06L479.583 221.48V191.94H482.443L482.723 194.88C483.496 193.8 484.416 192.967 485.483 192.38C486.563 191.793 487.736 191.5 489.003 191.5ZM488.203 194.2C487.043 194.2 486.016 194.553 485.123 195.26C484.243 195.953 483.516 196.727 482.943 197.58V208.02C483.489 208.833 484.176 209.48 485.003 209.96C485.843 210.427 486.763 210.66 487.763 210.66C489.509 210.66 490.823 209.993 491.703 208.66C492.583 207.327 493.023 205.253 493.023 202.44C493.023 200.6 492.849 199.073 492.503 197.86C492.156 196.633 491.629 195.72 490.923 195.12C490.216 194.507 489.309 194.2 488.203 194.2ZM512.987 191.5C514.854 191.5 516.34 191.953 517.447 192.86C518.567 193.767 519.374 195.047 519.867 196.7C520.36 198.34 520.607 200.26 520.607 202.46C520.607 204.58 520.307 206.473 519.707 208.14C519.12 209.793 518.227 211.093 517.027 212.04C515.827 212.987 514.314 213.46 512.487 213.46C510.18 213.46 508.327 212.647 506.927 211.02V221.06L503.567 221.48V191.94H506.427L506.707 194.88C507.48 193.8 508.4 192.967 509.467 192.38C510.547 191.793 511.72 191.5 512.987 191.5ZM512.187 194.2C511.027 194.2 510 194.553 509.107 195.26C508.227 195.953 507.5 196.727 506.927 197.58V208.02C507.474 208.833 508.16 209.48 508.987 209.96C509.827 210.427 510.747 210.66 511.747 210.66C513.494 210.66 514.807 209.993 515.687 208.66C516.567 207.327 517.007 205.253 517.007 202.44C517.007 200.6 516.834 199.073 516.487 197.86C516.14 196.633 515.614 195.72 514.907 195.12C514.2 194.507 513.294 194.2 512.187 194.2ZM543.151 213H538.391L535.671 197.54L532.711 213H528.071L524.231 191.94H527.671L530.351 210.92L533.711 194.62H537.691L540.871 210.92L543.551 191.94H546.831L543.151 213ZM562.196 191.94V210.34H568.136V213H552.336V210.34H558.836V194.6H552.536V191.94H562.196ZM559.516 182.08C560.262 182.08 560.856 182.307 561.296 182.76C561.749 183.213 561.976 183.767 561.976 184.42C561.976 185.1 561.749 185.673 561.296 186.14C560.856 186.593 560.262 186.82 559.516 186.82C558.809 186.82 558.229 186.593 557.776 186.14C557.322 185.673 557.096 185.1 557.096 184.42C557.096 183.767 557.322 183.213 557.776 182.76C558.229 182.307 558.809 182.08 559.516 182.08ZM575.52 213V191.94H578.38L578.64 194.86C579.493 193.78 580.56 192.953 581.84 192.38C583.133 191.793 584.387 191.5 585.6 191.5C587.667 191.5 589.167 192.047 590.1 193.14C591.047 194.233 591.52 195.753 591.52 197.7V213H588.16V200.18C588.16 198.74 588.08 197.58 587.92 196.7C587.76 195.807 587.427 195.16 586.92 194.76C586.413 194.347 585.627 194.14 584.56 194.14C583.733 194.14 582.953 194.32 582.22 194.68C581.5 195.04 580.853 195.493 580.28 196.04C579.72 196.573 579.253 197.113 578.88 197.66V213H575.52ZM612.104 183.04L615.464 183.46V213H612.524L612.204 210.22C611.418 211.34 610.511 212.16 609.484 212.68C608.471 213.2 607.384 213.46 606.224 213.46C604.398 213.46 602.891 213 601.704 212.08C600.518 211.16 599.638 209.88 599.064 208.24C598.491 206.587 598.204 204.673 598.204 202.5C598.204 200.393 598.531 198.513 599.184 196.86C599.838 195.193 600.778 193.887 602.004 192.94C603.244 191.98 604.731 191.5 606.464 191.5C607.678 191.5 608.744 191.713 609.664 192.14C610.584 192.553 611.398 193.167 612.104 193.98V183.04ZM607.344 194.2C605.584 194.2 604.231 194.887 603.284 196.26C602.338 197.633 601.864 199.713 601.864 202.5C601.864 204.313 602.058 205.833 602.444 207.06C602.831 208.287 603.398 209.207 604.144 209.82C604.904 210.433 605.831 210.74 606.924 210.74C608.124 210.74 609.144 210.4 609.984 209.72C610.838 209.04 611.544 208.273 612.104 207.42V196.9C611.531 196.047 610.838 195.387 610.024 194.92C609.211 194.44 608.318 194.2 607.344 194.2ZM631.509 191.5C633.495 191.5 635.155 191.953 636.489 192.86C637.835 193.753 638.842 195.02 639.509 196.66C640.189 198.3 640.529 200.233 640.529 202.46C640.529 204.607 640.182 206.507 639.489 208.16C638.795 209.813 637.775 211.113 636.429 212.06C635.095 212.993 633.442 213.46 631.469 213.46C629.495 213.46 627.835 213.007 626.489 212.1C625.142 211.193 624.122 209.92 623.429 208.28C622.749 206.627 622.409 204.7 622.409 202.5C622.409 200.327 622.755 198.413 623.449 196.76C624.142 195.107 625.162 193.82 626.509 192.9C627.869 191.967 629.535 191.5 631.509 191.5ZM631.509 194.24C629.695 194.24 628.322 194.913 627.389 196.26C626.469 197.593 626.009 199.673 626.009 202.5C626.009 205.273 626.462 207.333 627.369 208.68C628.289 210.027 629.655 210.7 631.469 210.7C633.282 210.7 634.642 210.027 635.549 208.68C636.469 207.333 636.929 205.26 636.929 202.46C636.929 199.66 636.475 197.593 635.569 196.26C634.662 194.913 633.309 194.24 631.509 194.24ZM663.073 213H658.313L655.593 197.54L652.633 213H647.993L644.153 191.94H647.593L650.273 210.92L653.633 194.62H657.613L660.793 210.92L663.473 191.94H666.753L663.073 213ZM678.618 210.68C680.231 210.68 681.504 210.38 682.438 209.78C683.384 209.167 683.858 208.353 683.858 207.34C683.858 206.7 683.738 206.147 683.498 205.68C683.271 205.213 682.798 204.793 682.078 204.42C681.358 204.047 680.251 203.673 678.758 203.3C677.304 202.94 676.038 202.527 674.958 202.06C673.891 201.58 673.058 200.96 672.458 200.2C671.871 199.44 671.578 198.453 671.578 197.24C671.578 196.053 671.911 195.033 672.577 194.18C673.258 193.313 674.198 192.653 675.398 192.2C676.598 191.733 677.991 191.5 679.578 191.5C681.271 191.5 682.744 191.727 683.998 192.18C685.264 192.62 686.338 193.167 687.218 193.82L685.738 196.1C684.938 195.553 684.058 195.107 683.098 194.76C682.138 194.4 680.978 194.22 679.618 194.22C677.964 194.22 676.791 194.48 676.098 195C675.404 195.507 675.058 196.167 675.058 196.98C675.058 197.593 675.224 198.107 675.558 198.52C675.904 198.92 676.484 199.287 677.298 199.62C678.111 199.94 679.231 200.293 680.658 200.68C682.031 201.04 683.224 201.473 684.238 201.98C685.264 202.487 686.064 203.153 686.638 203.98C687.211 204.807 687.498 205.873 687.498 207.18C687.498 208.673 687.071 209.887 686.218 210.82C685.364 211.74 684.258 212.413 682.898 212.84C681.551 213.253 680.124 213.46 678.618 213.46C676.711 213.46 675.084 213.187 673.738 212.64C672.404 212.08 671.284 211.407 670.377 210.62L672.298 208.4C673.124 209.08 674.071 209.633 675.138 210.06C676.218 210.473 677.378 210.68 678.618 210.68Z" fill="#FFD43B"/>
</svg>
